<svg xmlns="http://www.w3.org/2000/svg" viewBox="0 0 512 512">
  <defs>
    <linearGradient id="bg" x1="0" y1="0" x2="1" y2="1">
      <stop offset="0%" stop-color="#09111b"/>
      <stop offset="100%" stop-color="#120a24"/>
    </linearGradient>
    <linearGradient id="fx" x1="0" y1="0" x2="1" y2="1">
      <stop offset="0%" stop-color="#35d6ff"/>
      <stop offset="100%" stop-color="#7b4dff"/>
    </linearGradient>
    <filter id="glow" x="-40%" y="-40%" width="180%" height="180%">
      <feGaussianBlur stdDeviation="10" result="blur"/>
      <feMerge>
        <feMergeNode in="blur"/>
        <feMergeNode in="SourceGraphic"/>
      </feMerge>
    </filter>
  </defs>

  <rect x="20" y="20" width="472" height="472" rx="112" fill="url(#bg)"/>
  <rect x="20" y="20" width="472" height="472" rx="112" fill="none" stroke="rgba(110,189,255,0.22)" stroke-width="8"/>

  <path d="M108 352V160h168v54H170v30h96v52h-96v56z" fill="url(#fx)" filter="url(#glow)"/>
  <path d="M312 158h70l-58 92 78 104h-74l-41-58-42 58h-74l80-106-58-90h71l25 42z" fill="url(#fx)" filter="url(#glow)"/>

  <path d="M82 386c46 0 46-32 92-32s46 32 92 32 46-32 92-32 46 32 92 32" fill="none" stroke="#35d6ff" stroke-opacity="0.55" stroke-width="14" stroke-linecap="round"/>
</svg>
